<svg width="1200" height="630" viewBox="0 0 1200 630" fill="none" xmlns="http://www.w3.org/2000/svg">
  <rect width="1200" height="630" fill="#fff7f2"/>
  <rect x="0" y="0" width="1200" height="630" fill="url(#paint0_linear)"/>
  <circle cx="1020" cy="120" r="170" fill="#fb923c" fill-opacity="0.18"/>
  <circle cx="160" cy="520" r="220" fill="#f43f5e" fill-opacity="0.14"/>
  <rect x="110" y="94" width="980" height="442" rx="42" fill="white" fill-opacity="0.82"/>
  <rect x="110" y="94" width="980" height="442" rx="42" stroke="#fed7aa" stroke-width="2"/>
  <rect x="170" y="154" width="86" height="86" rx="24" fill="url(#paint1_linear)"/>
  <path d="M213 192V226" stroke="white" stroke-width="10" stroke-linecap="round"/>
  <path d="M183 204H243" stroke="white" stroke-width="10" stroke-linecap="round"/>
  <path d="M190 192H236C244.837 192 252 199.163 252 208V232C252 240.837 244.837 248 236 248H190C181.163 248 174 240.837 174 232V208C174 199.163 181.163 192 190 192Z" stroke="white" stroke-width="10"/>
  <text x="285" y="205" fill="#111827" font-family="Inter, Arial, sans-serif" font-size="64" font-weight="800">Yourz Gift</text>
  <text x="170" y="340" fill="#111827" font-family="Inter, Arial, sans-serif" font-size="74" font-weight="800">Share gifts without guessing</text>
  <text x="172" y="416" fill="#475569" font-family="Inter, Arial, sans-serif" font-size="34" font-weight="500">Create a wish list, share it, and let friends reserve the right gift.</text>
  <text x="172" y="470" fill="#f43f5e" font-family="Inter, Arial, sans-serif" font-size="30" font-weight="800">gift.imyourz.com</text>
  <defs>
    <linearGradient id="paint0_linear" x1="0" y1="0" x2="1200" y2="630" gradientUnits="userSpaceOnUse">
      <stop stop-color="#fff1f2"/>
      <stop offset="0.55" stop-color="#fff7ed"/>
      <stop offset="1" stop-color="#eef2ff"/>
    </linearGradient>
    <linearGradient id="paint1_linear" x1="170" y1="154" x2="256" y2="240" gradientUnits="userSpaceOnUse">
      <stop stop-color="#f43f5e"/>
      <stop offset="1" stop-color="#fb923c"/>
    </linearGradient>
  </defs>
</svg>
